<svg width="41" height="40" viewBox="0 0 41 40" fill="none" xmlns="http://www.w3.org/2000/svg">
<path d="M14.2133 15C15.1283 13.0583 17.5967 11.6667 20.5 11.6667C24.1833 11.6667 27.1667 13.905 27.1667 16.6667C27.1667 19 25.0367 20.9583 22.1567 21.5117C21.2533 21.685 20.5 22.4117 20.5 23.3333M20.5 28.3333H20.5167M35.5 20C35.5 21.9698 35.112 23.9204 34.3582 25.7403C33.6044 27.5601 32.4995 29.2137 31.1066 30.6066C29.7137 31.9995 28.0601 33.1044 26.2403 33.8582C24.4204 34.612 22.4698 35 20.5 35C18.5302 35 16.5796 34.612 14.7597 33.8582C12.9399 33.1044 11.2863 31.9995 9.8934 30.6066C8.50052 29.2137 7.39563 27.5601 6.64181 25.7403C5.88799 23.9204 5.5 21.9698 5.5 20C5.5 16.0218 7.08035 12.2064 9.8934 9.3934C12.7064 6.58035 16.5218 5 20.5 5C24.4782 5 28.2936 6.58035 31.1066 9.3934C33.9196 12.2064 35.5 16.0218 35.5 20Z" stroke="white" stroke-width="2" stroke-linecap="round" stroke-linejoin="round"/>
</svg>
