<svg width="41" height="40" viewBox="0 0 41 40" fill="none" xmlns="http://www.w3.org/2000/svg">
<path d="M28.8333 26.666L35.5 19.9993M35.5 19.9993L28.8333 13.3327M35.5 19.9993H12.1667M22.1667 26.666V28.3327C22.1667 29.6588 21.6399 30.9305 20.7022 31.8682C19.7645 32.8059 18.4927 33.3327 17.1667 33.3327H10.5C9.17392 33.3327 7.90215 32.8059 6.96447 31.8682C6.02678 30.9305 5.5 29.6588 5.5 28.3327V11.666C5.5 10.3399 6.02678 9.06816 6.96447 8.13048C7.90215 7.1928 9.17392 6.66602 10.5 6.66602H17.1667C18.4927 6.66602 19.7645 7.1928 20.7022 8.13048C21.6399 9.06816 22.1667 10.3399 22.1667 11.666V13.3327" stroke="white" stroke-width="2" stroke-linecap="round" stroke-linejoin="round"/>
</svg>
