<svg width="35" height="34" viewBox="0 0 35 34" fill="none" xmlns="http://www.w3.org/2000/svg">
<path d="M33.5 21.0089C28.4164 23.0644 22.9834 24.1178 17.5 24.1111C11.8413 24.1111 6.44222 23.0089 1.5 21.0089M17.5 18.7778H17.5178M24.6111 8.11111V4.55556C24.6111 3.61256 24.2365 2.70819 23.5697 2.0414C22.9029 1.3746 21.9985 1 21.0556 1H13.9444C13.0015 1 12.0971 1.3746 11.4303 2.0414C10.7635 2.70819 10.3889 3.61256 10.3889 4.55556V8.11111H24.6111ZM5.05556 33H29.9444C30.8874 33 31.7918 32.6254 32.4586 31.9586C33.1254 31.2918 33.5 30.3874 33.5 29.4444V11.6667C33.5 10.7237 33.1254 9.81931 32.4586 9.15251C31.7918 8.48571 30.8874 8.11111 29.9444 8.11111H5.05556C4.11256 8.11111 3.20819 8.48571 2.5414 9.15251C1.8746 9.81931 1.5 10.7237 1.5 11.6667V29.4444C1.5 30.3874 1.8746 31.2918 2.5414 31.9586C3.20819 32.6254 4.11256 33 5.05556 33Z" stroke="white" stroke-width="2" stroke-linecap="round" stroke-linejoin="round"/>
</svg>
