<svg width="41" height="40" viewBox="0 0 41 40" fill="none" xmlns="http://www.w3.org/2000/svg">
<path d="M28.8332 23.3327V33.3327M23.8332 28.3327H33.8332M10.4998 16.666H13.8332C14.7172 16.666 15.5651 16.3148 16.1902 15.6897C16.8153 15.0646 17.1665 14.2167 17.1665 13.3327V9.99935C17.1665 9.11529 16.8153 8.26745 16.1902 7.64233C15.5651 7.0172 14.7172 6.66602 13.8332 6.66602H10.4998C9.61578 6.66602 8.76794 7.0172 8.14281 7.64233C7.51769 8.26745 7.1665 9.11529 7.1665 9.99935V13.3327C7.1665 14.2167 7.51769 15.0646 8.14281 15.6897C8.76794 16.3148 9.61578 16.666 10.4998 16.666ZM27.1665 16.666H30.4998C31.3839 16.666 32.2317 16.3148 32.8569 15.6897C33.482 15.0646 33.8332 14.2167 33.8332 13.3327V9.99935C33.8332 9.11529 33.482 8.26745 32.8569 7.64233C32.2317 7.0172 31.3839 6.66602 30.4998 6.66602H27.1665C26.2824 6.66602 25.4346 7.0172 24.8095 7.64233C24.1844 8.26745 23.8332 9.11529 23.8332 9.99935V13.3327C23.8332 14.2167 24.1844 15.0646 24.8095 15.6897C25.4346 16.3148 26.2824 16.666 27.1665 16.666ZM10.4998 33.3327H13.8332C14.7172 33.3327 15.5651 32.9815 16.1902 32.3564C16.8153 31.7312 17.1665 30.8834 17.1665 29.9993V26.666C17.1665 25.782 16.8153 24.9341 16.1902 24.309C15.5651 23.6839 14.7172 23.3327 13.8332 23.3327H10.4998C9.61578 23.3327 8.76794 23.6839 8.14281 24.309C7.51769 24.9341 7.1665 25.782 7.1665 26.666V29.9993C7.1665 30.8834 7.51769 31.7312 8.14281 32.3564C8.76794 32.9815 9.61578 33.3327 10.4998 33.3327Z" stroke="white" stroke-width="2" stroke-linecap="round" stroke-linejoin="round"/>
</svg>
