<svg width="41" height="40" viewBox="0 0 41 40" fill="none" xmlns="http://www.w3.org/2000/svg">
<path d="M12.1665 19.1667V23.3333M12.1665 19.1667V9.16667C12.1665 8.50363 12.4299 7.86774 12.8987 7.3989C13.3676 6.93006 14.0035 6.66667 14.6665 6.66667C15.3295 6.66667 15.9654 6.93006 16.4343 7.3989C16.9031 7.86774 17.1665 8.50363 17.1665 9.16667M12.1665 19.1667C12.1665 18.5036 11.9031 17.8677 11.4343 17.3989C10.9654 16.9301 10.3295 16.6667 9.6665 16.6667C9.00346 16.6667 8.36758 16.9301 7.89874 17.3989C7.4299 17.8677 7.1665 18.5036 7.1665 19.1667V22.5C7.1665 25.8152 8.48346 28.9946 10.8277 31.3388C13.1719 33.683 16.3513 35 19.6665 35C22.9817 35 26.1611 33.683 28.5053 31.3388C30.8495 28.9946 32.1665 25.8152 32.1665 22.5V14.1667C32.1665 13.5036 31.9031 12.8677 31.4343 12.3989C30.9654 11.9301 30.3295 11.6667 29.6665 11.6667C29.0035 11.6667 28.3676 11.9301 27.8987 12.3989C27.4299 12.8677 27.1665 13.5036 27.1665 14.1667M17.1665 9.16667V18.3333M17.1665 9.16667V7.5C17.1665 6.83696 17.4299 6.20107 17.8987 5.73223C18.3676 5.26339 19.0035 5 19.6665 5C20.3295 5 20.9654 5.26339 21.4343 5.73223C21.9031 6.20107 22.1665 6.83696 22.1665 7.5V9.16667M27.1665 14.1667V9.16667C27.1665 8.50363 26.9031 7.86774 26.4343 7.3989C25.9654 6.93006 25.3295 6.66667 24.6665 6.66667C24.0035 6.66667 23.3676 6.93006 22.8987 7.3989C22.4299 7.86774 22.1665 8.50363 22.1665 9.16667M27.1665 14.1667V18.3333M22.1665 9.16667V18.3333" stroke="white" stroke-width="2" stroke-linecap="round" stroke-linejoin="round"/>
</svg>
